<svg id="Layer_1" data-name="Layer 1" xmlns="http://www.w3.org/2000/svg" viewBox="0 0 419.93 480.38"><defs><style>.cls-1{fill:#fff;}.cls-2{fill:#334c52;}</style></defs><title>Handcrafts LOGO [Converted]-02</title><path class="cls-1" d="M336,314.8a41.14,41.14,0,0,1-2,3.71,33.08,33.08,0,0,1-7.89,8.78,25.2,25.2,0,0,1-5.54,4.3c-5.42,3.08-11.3,2.69-17.29,2.1s-12.12-1.38-18.15-2.35c-11.76-1.91-23.44-4.91-35.39-5.32a62.56,62.56,0,0,0-20.32,2.61,35.75,35.75,0,0,1,.22-4.53A30.56,30.56,0,0,0,230.8,319c.39-2.74-3.66-4-4.28-1.18-.93,3.36-1.8,8.12-5,10.12a5.18,5.18,0,0,1-4.1.65c-2.61-.92-2-3.71-.86-5.6.33-.41.64-.84.93-1.28,1.44-2.17-2-4.89-3.66-2.82l-.38.5a13.5,13.5,0,0,1-4.51,4.18,8.5,8.5,0,0,0-1-1.26c-2.44-2.64-7.23-3.56-9.6-.3-3.31,4.55,1.52,7.85,5.77,7.61a8.78,8.78,0,0,0,1.15-.11,9.25,9.25,0,0,1-1.18,2.82c-1.79,3-5.33,6.62-8.88,7.33-5.42,1.09-6-4.06-5.83-8.12A47.8,47.8,0,0,1,193,315.59c9-4,16.8-9.79,20.69-18.86a2.59,2.59,0,0,0-.9-3.44c-9.39-5.58-18.65,8.74-22.27,15.53-.51,1-1,1.92-1.43,2.9-9,3.82-18.79,6.21-28.29,8.4a293.05,293.05,0,0,1-34.12,5.57.89.89,0,0,0-.43,0c-1.7.23-3.39.44-5.07.61l-2.09.19c-7.06.57-14,.34-21-1.89-3.81-1.22-7.94-3.23-10-6.81a10.71,10.71,0,0,1,1.91-13c.46-.46-.23-1.13-.7-.7-5.36,4.82-5.32,12.55-.69,17.85,5.52,6.3,20,8.65,28.09,8.45A244,244,0,0,0,164.81,324a205.61,205.61,0,0,0,21.85-5.8,51.52,51.52,0,0,0-1.54,6.11c-.9,4.84-2,11.2.26,15.8,5.35,10.76,19.32,2.21,23.32-5.07a13.17,13.17,0,0,0,1.65-6.93l.81-.41a6.65,6.65,0,0,0,6.18,6.13,81.64,81.64,0,0,0-20.07,15.74c-6.58,7-13.59,15.54-15,25.34-1.08,7.7,2.28,16.69,9.82,19.91,8.88,3.8,18.69-2.69,24.93-8.66a46.29,46.29,0,0,0,13.9-27.33c.81-6.33.14-12.64-.54-18.94-.24-2.17-.51-4.42-.7-6.7q1.72-.57,3.45-1c11.05-2.87,22.43-1.63,33.53.34,10.35,1.84,20.64,3.84,31.09,5.06s20.63,2.42,29-5c5-4.52,7.91-10.32,9.93-16.51-.1-.48-.22-1-.34-1.44ZM203.07,325.16q-1.12.15,0-.34c.48-.53.87-.44,1.17.26A5.75,5.75,0,0,1,203.07,325.16Zm4.82-28a31,31,0,0,1-10.81,10.58c2.65-4.4,6.92-10.22,10.81-10.62Zm11,78.5c-4.51,6.93-15.38,18.33-24.72,15-10.07-3.57-8.47-16.7-4.45-24.07a74.52,74.52,0,0,1,35.15-31.67c.24,4.83.81,9.64,1,14.47a44.31,44.31,0,0,1-7,26.23Z"/><path class="cls-1" d="M46.49,321.42c-1,1.92-2,3.76-3,5.61s-2.18,3.64-3.34,5.42c-2.3,3.56-4.73,7-7.27,10.41q-1.91,2.54-3.89,5c-1.32,1.64-2.67,3.28-4,4.89s-2.76,3.21-4.18,4.77-2.86,3.12-4.32,4.64L15,357.41q4,1.15,8,2.4c2.66.83,5.31,1.72,8,2.62s5.27,1.87,7.87,2.92c1.31.5,2.61,1,3.91,1.58s2.59,1.11,3.87,1.71q-2.12-.15-4.21-.4c-1.4-.15-2.79-.33-4.18-.53-2.78-.36-5.54-.83-8.3-1.3s-5.49-1-8.22-1.59-5.45-1.17-8.16-1.81a2.86,2.86,0,0,1-1.5-4.65l.09-.11,4.14-4.71,4.16-4.69,4.19-4.67,4.23-4.64q2.12-2.32,4.28-4.61t4.34-4.57c1.45-1.53,3-3,4.43-4.52S44.91,322.86,46.49,321.42Z"/><path class="cls-1" d="M56.37,336c-.39,1-.84,1.83-1.29,2.71s-.93,1.74-1.42,2.59-1,1.68-1.51,2.5-1,1.63-1.58,2.43-1.08,1.59-1.63,2.37-1.12,1.55-1.68,2.33-1.14,1.53-1.74,2.28-1.17,1.51-1.78,2.24L41.3,350.6c1,0,1.93,0,2.89.07l1.44.14c.48.06,1,.15,1.42.22l1.41.28,1.39.36c.92.25,1.82.59,2.71.93a20.93,20.93,0,0,1,2.58,1.22,26.17,26.17,0,0,1,2.41,1.48,21.92,21.92,0,0,1,2.2,1.77l1,1c.31.36.63.7.92,1.07-.47-.09-.91-.21-1.36-.32L59,358.46l-2.59-.57c-.43-.07-.85-.17-1.28-.25l-1.27-.23c-.85-.13-1.68-.27-2.51-.38l-1.24-.16a10.21,10.21,0,0,1-1.24-.13l-2.46-.18c-.82,0-1.64-.06-2.45-.07s-1.63,0-2.44,0a3,3,0,0,1-2.52-4.7l.07-.09c.59-.77,1.22-1.51,1.84-2.26s1.28-1.46,1.92-2.19c1.32-1.43,2.67-2.83,4.1-4.15s2.91-2.61,4.47-3.81c.79-.59,1.58-1.18,2.41-1.73A25.3,25.3,0,0,1,56.37,336Z"/><path class="cls-1" d="M373.44,321.42c1.58,1.44,3.09,2.94,4.59,4.42s3,3,4.43,4.52,2.91,3,4.34,4.57,2.86,3.07,4.28,4.61l4.23,4.64,4.19,4.67,4.16,4.69,4.14,4.71.08.1a2.85,2.85,0,0,1-.26,4,2.89,2.89,0,0,1-1.23.63q-4.07,1-8.16,1.81c-2.73.57-5.47,1.09-8.22,1.59s-5.51.94-8.3,1.3c-1.39.2-2.78.38-4.18.53s-2.8.3-4.21.4q1.92-.91,3.87-1.71c1.29-.56,2.6-1.07,3.91-1.58,2.61-1,5.24-2,7.87-2.92s5.29-1.79,8-2.62,5.33-1.64,8-2.4l-1.41,4.76c-1.46-1.53-2.91-3.07-4.32-4.64s-2.8-3.17-4.18-4.77-2.72-3.24-4-4.89-2.62-3.32-3.89-5c-2.54-3.38-5-6.85-7.27-10.41-1.16-1.77-2.24-3.61-3.33-5.42S374.39,323.33,373.44,321.42Z"/><path class="cls-1" d="M363.57,336a26.71,26.71,0,0,1,2.57,1.57c.83.57,1.63,1.14,2.41,1.73,1.57,1.2,3,2.48,4.47,3.81s2.78,2.73,4.1,4.15c.64.73,1.3,1.44,1.92,2.19s1.25,1.49,1.83,2.26l.06.08a3,3,0,0,1-2.51,4.77H376c-.82,0-1.63,0-2.45.07l-2.46.18-1.24.13-1.24.16c-.83.1-1.66.25-2.51.38l-1.27.23c-.43.07-.84.18-1.28.25l-2.59.57-1.32.32c-.45.1-.89.23-1.36.32.29-.37.61-.71.92-1.07l1-1a21.92,21.92,0,0,1,2.2-1.77,26.17,26.17,0,0,1,2.41-1.48c.83-.45,1.7-.84,2.58-1.22a21.11,21.11,0,0,1,2.71-.93l1.39-.36,1.41-.28c.47-.07,1-.16,1.42-.22l1.44-.14c1-.08,1.93-.08,2.89-.07l-2.44,4.85c-.61-.73-1.18-1.5-1.78-2.24s-1.15-1.52-1.74-2.28-1.13-1.54-1.68-2.33-1.1-1.57-1.63-2.37-1.06-1.61-1.58-2.43-1-1.65-1.51-2.5-1-1.7-1.42-2.59Z"/><path class="cls-1" d="M117.89,111a23.53,23.53,0,0,0-1-2.45l-3.74-31.38c-1-8-2.08-16-2.84-24-.61-6.48,1-16.19-4-21.27a13.2,13.2,0,0,0-15.88-2.26c-5.1,3-6.84,8.52-6.29,14,.88,8.75,2.07,17.47,3.12,26.2-8.64.4-17.47,2.12-26,3.5q-1.17-18.8-2.81-37.57C57.87,29,53.14,23.24,46,23.24c-6.3,0-13.09,5.74-12.5,12.5Q37.08,77,38.38,118.42c.5,16,25.5,16.12,25,0q-.32-10.1-.77-20.19c9-1.25,18.46-3.34,27.67-3.48l.3,2.5c1,8.56,0,23.64,8.6,28.19a12.86,12.86,0,0,0,15.15-2l.35-.35C117.7,120.16,119.3,115.1,117.89,111Z"/><path class="cls-1" d="M201.43,76.15a300.5,300.5,0,0,0-3.59-30.89c-2.44-13.77-5-33-17.86-41.3-14.61-9.48-28.78-.68-36,12.88a82.44,82.44,0,0,0-8,23.86c-2,11.26-3.37,22.62-4.6,34-.61,5.65-.82,11.51-1.82,17.1-1.62,9-1.12,22.29,11.4,22.29,7.42,0,11.7-5.77,12.5-12.5q.89-7.55,1.74-15.12a81.52,81.52,0,0,0,22.26,1c.14,1.75.25,3.49.28,5.21a12.41,12.41,0,0,0-.91,4.48,13.07,13.07,0,0,0,6.51,11.39c4.59,2.74,11.44,2.07,15.15-2C205.5,99,202.11,85.61,201.43,76.15Zm-43.26-14.6c.38-3,.76-6.09,1.16-9.13a101.64,101.64,0,0,1,3.71-17,28.87,28.87,0,0,1,3-6.56c-.14.24.48-.7,1-1.5.19.46.37.93.56,1.43a97.1,97.1,0,0,1,3,9.26,144.84,144.84,0,0,1,4.11,20q.31,2.34.56,4.7a53.49,53.49,0,0,1-17.1-1.19Z"/><path class="cls-1" d="M300.46,19c-5.49-3.21-14.13-1.61-17.1,4.48a201.75,201.75,0,0,0-18.61,60.8C256.89,66.18,250,47.63,240,30.56a11.42,11.42,0,0,0-2-3.23,11.37,11.37,0,0,0-9.65-4.82h-.27a11.44,11.44,0,0,0-8.29,3.29c-5.6,5.53-4.51,15.84-5.2,23.07C212.53,70.45,211.44,92,210,113.6c-.54,8.76-4.62,18.55,3.11,25.46,7.91,7.08,21.3,2.41,21.34-8.84q.08-24.85,1.75-49.64C243,96.87,249.67,113.24,259,128.29a12.1,12.1,0,0,0,6.18,5.18c.36.25.72.49,1.11.71,5.28,3,10.41,2.4,15.77.05,3.71-1.62,6.46-6.86,6.19-10.79a172.27,172.27,0,0,1,16.59-87.35C307.91,30,306.6,22.56,300.46,19Z"/><path class="cls-1" d="M370,47.64c-13.58-11.7-29.32-18.94-47.68-16.21C314.4,32.6,312.79,40,312,46.78,310.9,56,309.5,65.69,308,75c-2.42,14.77-5.55,29.43-7.53,44.26-1.67,12.31,5.53,15.39,16.53,16,11.92.65,22.29,2.1,34.12-1.72C368.15,128,383,114.85,387.35,97,391.8,78.7,383.94,59.7,370,47.64Zm-6.71,42.7c-2,7.88-7.65,14.35-15.62,17.91a39.92,39.92,0,0,1-13.85,3.26c-1.39.08-2.8,0-4.19.09h-1.29l-1.07-.13,4.6-27.16c1.57-9.25,3.82-18.69,4.67-28.14h.13a65.61,65.61,0,0,1,5.94,2.89,51.64,51.64,0,0,1,12.06,8.44c6.38,6.18,10.53,15.2,8.62,22.84Z"/><path class="cls-1" d="M60.72,227.47c0,7.63-6.81,13.78-15.08,13.56a21,21,0,0,1-11-3.89,23.68,23.68,0,0,1-8.32-12.34c-2.8-9.28-1.19-20.82,5.67-27.57a22.25,22.25,0,0,1,26.4-3.41c14.13,7.7,26.77-13.88,12.62-21.59-14.36-7.82-31.48-8.37-46-.63C10.76,179.18,2.3,193.6.4,209.34c-1.83,15.2,2.86,31.1,13.31,42.41s27.45,16.75,42.6,13.08c16.89-4.09,29.33-20.1,29.42-37.36C85.8,211.38,60.8,211.36,60.72,227.47Z"/><path class="cls-1" d="M161.79,178c.55-11.88-6.45-21.86-16.6-27.46-7.52-4.14-16.22-5.35-24.7-5.28-5.86,0-16.77-.9-21.8,2.33a11.24,11.24,0,0,0-5,10.12c.75,22.77,2.33,45.35.94,68.15-.46,7.55-.09,16.66,8.47,19.35a13,13,0,0,0,16.67-11.66c.31-6,.45-12.09.48-18.14h.31l.11.2q.45.48.86,1a92.36,92.36,0,0,1,12.11,19.65c2.82,6.5,4.4,13.36,13,13.36s13.58-8.86,12.6-16.57c-1.32-10.41-8.1-18.42-14.23-26.45l-.41-.56A34.54,34.54,0,0,0,161.79,178Zm-41.26-9.83c5.33-2.14,18.15,4,15.51,10.84-1.31,3.38-5,6.09-8.15,7.61-1.92.92-4.23,1.83-6.08.77s-2.24-3.74-2.32-6l-.37-10.61a2.4,2.4,0,0,1,1.41-2.64Z"/><path class="cls-1" d="M230.18,227.21a190.82,190.82,0,0,0-3.07-27.91,108.83,108.83,0,0,0-8.4-25.64c-3.57-7.63-8.71-17.5-17.23-20.33-22.06-7.31-26.7,24.84-29.69,39.23a309.75,309.75,0,0,0-6.38,55.83c-.37,16.09,24.63,16.09,25,0q.1-4.47.34-8.93,7.52.11,15-.17v2.2a14.25,14.25,0,0,0-1.17,9.42c.7,3.26,3.21,6.88,6.36,8.25,4.94,2.15,11.16,2.47,15.15-2C232.89,249.71,230.59,236.66,230.18,227.21Zm-37-12.72c.29-2,.6-4,1-6q1.71-9.85,4.12-19.56l.25.61a99.66,99.66,0,0,1,4.83,18.07c.4,2.23.71,4.47,1,6.72q-5.66.19-11.21.16Z"/><path class="cls-1" d="M288.75,149.49c-9.18-.81-18.35-.38-27.54-1.52-10.64-1.32-25-2.45-24.65,12q.86,37.13,1.81,74.25c.09,3.57.22,7.27,1.82,10.46a12.19,12.19,0,0,0,22.34-1.28,25,25,0,0,0,.91-9l-.66-26.4c5.23,2.29,11.58,2.61,16.47-.34s7.62-9.58,5.16-14.73-8.36-7.06-13.71-8.6l-7-2a2,2,0,0,1-1.83-2.42v-6.57L283,174.5c4.69.26,9.85.39,13.51-2.54a12.41,12.41,0,0,0,4.23-9.28c.15-4.16-1.47-8.55-4.88-10.94A14.39,14.39,0,0,0,288.75,149.49Z"/><path class="cls-1" d="M358.1,153.6c-4.57-2.68-9-1.61-13.93-.95a94.5,94.5,0,0,1-25.44,0c-6.68-.95-13.43,1.64-15.38,8.73-1.61,5.86,2,14.42,8.73,15.38q2.82.4,5.64.73c1.93.41-4.06,58.18-2.65,64.67a11.57,11.57,0,0,0,3.77,6.25c7.91,6.88,21.39,2.55,21.34-8.84q-.13-30.93,2.51-61.75,1.69-.18,3.38-.39c7-.89,16.36.84,18.21-8.09C365.55,163.16,363.73,156.9,358.1,153.6Z"/><path class="cls-1" d="M397.33,203.14l.27.28c5,5.15,12.6,4.3,17.68,0,11.14-9.43.06-27.68-9.88-33-22.87-12.15-48.72,12.32-40.42,35.93,3.6,10.25,11.33,17.27,19.81,23.57,2,1.52,4.83,3.23,5.91,5.4,1.59,3.19-.83,5.36-3.9,5.72-5.64.67-3.9-2.75-4.42-6.52a12.1,12.1,0,0,0-1.49-4.47c-3.21-5.49-9.28-7-14.86-5.35-4.74.77-9.68,4-10.62,9-2.83,15.07,7,28.61,22,31.35s31.14-2.6,36.91-17.7S411.72,219,400,210.23c-6-4.47-16.44-11-7.87-17.81a4.29,4.29,0,0,0,.92-.15l.49.09.14.07C393,196.27,394.83,200.55,397.33,203.14Z"/><path class="cls-1" d="M155.59,449.34a31.44,31.44,0,0,0-10.9-14.67,18.73,18.73,0,0,0,5.11-5.32c3.18-5.1,3.79-11.76.2-16.81-3.41-4.8-9.89-6.76-15.56-6.1-4.15.48-12.87,3.17-12.67,8.3l1.28,33.59a5.58,5.58,0,0,0-.07,1.74l.21,1.9c.75,6.87,11.28,7.22,11,0l-.41-10.71a18.44,18.44,0,0,1,11.2,11C147.4,458.85,158,456,155.59,449.34Zm-18.19-32c2.22.18,4,1,4.07,3.37.05,4-4.34,6.2-8.17,7.63l-.33-8.62a5.53,5.53,0,0,0,.56-1.64,4.49,4.49,0,0,1,1.47-.61,8,8,0,0,1,2.4-.08Z"/><path class="cls-1" d="M168.35,419.37a5.93,5.93,0,0,0-1.31.51,5.88,5.88,0,0,0-5.34,5.19c-1.53,13,2.11,25.88,1.22,38.91-.43,7.08,10.52,7,11,0l.08-1.24v-.44a86.13,86.13,0,0,0-.2-9.39c9.5.09,20.52-5.31,21.29-15.47C196.11,423.8,179.56,416.48,168.35,419.37ZM184,436.89c-.84,4.24-7.2,5.38-11.16,5a101.44,101.44,0,0,1-.47-12.11,10.16,10.16,0,0,1,7.85,1.5C181.75,432.32,184.39,434.85,184,436.89Z"/><path class="cls-1" d="M231.37,448.12a82.75,82.75,0,0,1-.83-32.24c1.2-6.92-9.4-9.9-10.61-2.92a100.45,100.45,0,0,0-1.43,13.86l-10.44-.41q0-7.67.41-15.34c.36-7.08-10.64-7.06-11,0a319,319,0,0,0,.28,37.28,4.68,4.68,0,0,0,.11,3.53l.28.7c2.08,5.28,11.3,5.25,10.8-1.46q-.51-6.85-.72-13.71l10.54.42a96.93,96.93,0,0,0,2,13.22C222.3,458,232.76,455,231.37,448.12Z"/><path class="cls-1" d="M265.57,448a74.62,74.62,0,0,0-1.1-13.55c-1-6.81-2.36-19.38-12.14-17.66-8,1.41-11.4,10.86-13.66,17.52a72.22,72.22,0,0,0-3.52,27.14c.4,7,11.4,7.08,11,0a69.85,69.85,0,0,1,.09-9.48h8c-.21,2.3-.54,4.58-.73,6.86s-.16,4.48,1.77,6c2.34,1.88,5.46,2.26,7.78,0l.26-.26c2.86-2.79,1.78-10.92,2.1-14.76Q265.54,448.87,265.57,448Zm-13.35-17.48c.39,2.65,1.5,5.63,1.78,8.09.09.77.16,1.55.23,2.33q-3,.06-6.08,0A54.15,54.15,0,0,1,251.3,432a15.27,15.27,0,0,1,.92-1.58Z"/><path class="cls-1" d="M304.46,410.76c-.32-2.57-1-4.83-2.62-5.81-3.22-2.56-9.8.44-9,6a197.2,197.2,0,0,1,2.27,20.38c0,2,0,4-.13,6-.94-3.09-1.89-6.17-3-9.21-1.54-4.25-3.32-10.55-6.86-14.22-1.29-3.53-6-4.3-8.66-2.32a6.84,6.84,0,0,0-4.54,3.59c-1.73,3.28-.51,7.2-.18,10.68a127.43,127.43,0,0,1,.18,17.93c-.2,4.36-2,11.51,1,15.22,2.67,3.26,9,3.6,9.7-1.46l0-.38a42.07,42.07,0,0,0,1.44-11.66q.23-2.29.43-4.59c.51,1.68,1,3.36,1.54,5,1.8,5.77,4.67,18,13.47,13.53,6-3,6.37-12.06,6.45-17.84A227.53,227.53,0,0,0,304.46,410.76Z"/><path class="cls-1" d="M115.2,427.55c-6.37-9.47-19.6-11.64-29.77-7.72-11.52,4.43-16.64,17.9-13.36,29.41,4,14,19.45,21.63,32.88,15.61C118.08,459,123.19,439.43,115.2,427.55Zm-14.8,26.71c-5.08,2.87-11.52,2.52-16-4.11-5-7.47.68-16.68,8.18-19.64,15.18-6,20,16.88,7.82,23.75Z"/><path class="cls-1" d="M335.16,440.77c-4.32-2-10.84-3.7-12.6-8.68-1.9-5.36,2.72-10.55,7.84-8.5a5.3,5.3,0,0,0,1.11,1.67c6.44,6.49,13.53-5.81,5.54-10.62-9.37-5.65-22.11-1.07-25.24,9.6s3.6,19.4,12.69,23.76c3.75,1.8,8.49,3,11.49,6,4.07,4.09,1,10.34-3.09,13.14-8.59,5.85-22-2.16-15.54-12.33,3.81-6-5.71-11.52-9.5-5.55-6.25,9.84-2.19,24,8.37,29,10.74,5.13,24.78.3,30.22-10.27C352.55,456.25,346.24,445.82,335.16,440.77Z"/><path class="cls-2" d="M80.4,75.18q1.47-.18,2.95-.31a1,1,0,1,0-.17-2q-1.51.13-3,.32a1,1,0,0,0,.24,2Zm-10.69,2q1.44-.36,2.89-.67a1,1,0,1,0-.42-2q-1.48.32-3,.69a1,1,0,1,0,.49,1.94ZM59.36,80.45q1.38-.54,2.78-1a1,1,0,1,0-.66-1.89h0l-2.85,1a1,1,0,0,0,.72,1.86Z"/><path class="cls-2" d="M198,98.33l-.55-1.87a1,1,0,1,0-1.92.56h0l.55,1.87a1,1,0,0,0,1.92-.56Zm-2-8.43q.07,1.49.13,3a1,1,0,1,0,2-.08q-.06-1.5-.13-3a1,1,0,1,0-2,.09Zm-.66-11q.11,1.49.21,3a1,1,0,1,0,2-.13q-.1-1.5-.21-3a1,1,0,0,0-2,.15Zm-1-10.93q.15,1.49.29,3a1,1,0,0,0,2-.19h0q-.14-1.5-.29-3a1,1,0,0,0-2,.2Zm-1.25-10.9q.19,1.48.37,3a1,1,0,1,0,2-.24q-.18-1.49-.37-3a1,1,0,0,0-2,.25ZM191.55,46.2q.23,1.48.45,3a1,1,0,1,0,2-.29q-.22-1.49-.45-3a1,1,0,1,0-2,.31Zm-1.82-10.82q.27,1.47.53,3a1,1,0,0,0,2-.34l-.53-3a1,1,0,1,0-2,.36Zm-2.29-10.66q.39,1.42.73,2.87a1,1,0,0,0,1.95-.45h0q-.34-1.48-.75-3a1,1,0,1,0-1.93.53Zm-4.09-9.86a28.65,28.65,0,0,1,1.4,2.54,1,1,0,0,0,1.8-.88h0a30.61,30.61,0,0,0-1.5-2.71,1,1,0,1,0-1.7,1.06ZM176,7.58a18.24,18.24,0,0,1,2.37,1.57,1,1,0,1,0,1.35-1.48l-.12-.09A20.24,20.24,0,0,0,177,5.87a1,1,0,0,0-1,1.75Zm-10-1.8a15.3,15.3,0,0,1,2.51-.21h.3a1,1,0,1,0,0-2h-.34a17.3,17.3,0,0,0-2.83.24,1,1,0,0,0,.33,2Zm-9.34,4.47a23.26,23.26,0,0,1,2.32-1.69A1,1,0,0,0,158,6.91a25.24,25.24,0,0,0-2.52,1.84,1,1,0,0,0,1.27,1.54Zm-6.55,8.25q.68-1.29,1.47-2.51a1,1,0,0,0-1.54-1q-.84,1.3-1.56,2.66a1,1,0,0,0,1.77.94Zm-3.7,10.1q.4-1.43.85-2.83a1,1,0,0,0-1.86-.74l0,.13q-.47,1.45-.87,2.92a1,1,0,1,0,1.93.53Zm-2.49,10.66.41-1.9.23-1a1,1,0,0,0-2-.43l-.23,1-.41,1.9a1,1,0,1,0,2,.42ZM141.6,50q.3-1.47.61-2.93a1,1,0,1,0-2-.41h0q-.31,1.47-.61,2.94a1,1,0,0,0,2,.4Zm-2.06,10.78q.26-1.47.53-2.94a1,1,0,1,0-2-.36h0q-.27,1.48-.53,3a1,1,0,1,0,2,.35Zm-1.67,10.83q.19-1.48.41-3a1,1,0,0,0-2-.29q-.21,1.49-.41,3a1,1,0,1,0,2,.26Zm-1.09,10.88q.1-1.49.23-3a1,1,0,1,0-2-.17h0q-.13,1.5-.23,3a1,1,0,1,0,2,.14Zm-.33,10.91v-3a1,1,0,0,0-2,0v3a1,1,0,0,0,2,0Zm.63,10.88q-.16-1.48-.28-3a1,1,0,0,0-2,.16q.12,1.51.28,3a1,1,0,0,0,2-.21Z"/><path class="cls-2" d="M214.6,121.89l-.18,3a1,1,0,1,0,2,.12h0l.18-3a1,1,0,1,0-2-.12Zm.69-11-.19,3a1,1,0,1,0,2,.13l.19-3a1,1,0,1,0-2-.13Zm.73-11-.2,3a1,1,0,1,0,2,.13l.2-3a1,1,0,1,0-2-.14Zm.77-11-.21,3a1,1,0,1,0,2,.14l.21-3a1,1,0,1,0-2-.14Zm.81-11-.22,3a1,1,0,0,0,2,.15l.22-3a1,1,0,0,0-2-.15Zm.85-11-.24,3a1,1,0,0,0,2,.16l.24-3a1,1,0,0,0-2-.16Zm.89-11-.25,3a1,1,0,1,0,2,.16l.25-3a1,1,0,1,0-2-.17h0Zm.93-11-.26,3a1,1,0,1,0,2,.17l.26-3a1,1,0,1,0-2-.17Zm1-11-.27,3a1,1,0,0,0,2,.18l.27-3a1,1,0,0,0-2-.18Z"/><path class="cls-2" d="M298.48,31.5l.17-.21A1,1,0,1,0,297.09,30h0l-.17.22a1,1,0,0,0,1.57,1.24Zm-5.76,9.11q.66-1.32,1.39-2.6a1,1,0,0,0-1.74-1q-.75,1.33-1.44,2.69a1,1,0,0,0,1.79.9h0Zm-4,10q.44-1.42.94-2.81a1,1,0,0,0-1.88-.67q-.51,1.43-1,2.88a1,1,0,1,0,1.91.6Zm-2.61,10.56q.28-1.46.59-2.91a1,1,0,0,0-2-.43q-.32,1.48-.61,3a1,1,0,1,0,2,.37ZM284.51,72q.16-1.48.35-3a1,1,0,0,0-2-.25q-.19,1.5-.35,3a1,1,0,0,0,2,.22Zm-.92,10.92q.1-1.49.21-3a1,1,0,0,0-2-.15q-.11,1.5-.21,3a1,1,0,1,0,2,.14Zm-.73,11q.11-1.5.21-3a1,1,0,1,0-2-.13l-.2,3a1,1,0,1,0,2,.14Zm-1,11q.17-1.5.32-3a1,1,0,1,0-2-.2q-.15,1.49-.32,3a1,1,0,0,0,2,.23Zm-1.69,11q.3-1.48.56-3a1,1,0,0,0-2-.34h0q-.25,1.47-.55,2.92a1,1,0,1,0,2,.39Zm-5.63,6.25a25.19,25.19,0,0,0,2,2.18,1,1,0,0,0,1.65-.44v-.14a1,1,0,0,0-1.92-.56h0v.14l1,.28.69-.72a23.16,23.16,0,0,1-1.85-2,1,1,0,0,0-1.54,1.27Zm-5.7-9.68c.42.92.85,1.84,1.31,2.75a1,1,0,1,0,1.79-.9c-.44-.88-.86-1.77-1.27-2.67a1,1,0,1,0-1.82.83Zm-4.35-10.13,1.18,2.76a1,1,0,0,0,1.84-.78l-1.18-2.76a1,1,0,0,0-1.87.71Zm-4.31-10.12L261.36,95a1,1,0,0,0,1.84-.78l-1.2-2.8a1,1,0,0,0-1.84.78Zm-4.31-10.12L257,84.85a1,1,0,0,0,1.87-.71l0-.07-1.18-2.76a1,1,0,0,0-1.87.71l0,.07ZM251.56,72l1.18,2.76a1,1,0,0,0,1.84-.78l-1.18-2.76a1,1,0,0,0-1.87.71Zm-4.31-10.12,1.18,2.76a1,1,0,1,0,1.87-.71l0-.07-1.18-2.76a1,1,0,0,0-1.87.71Zm-4.33-10.1q.61,1.37,1.19,2.74A1,1,0,0,0,246,53.7q-.59-1.38-1.2-2.77a1,1,0,1,0-1.83.81Zm-5.07-9.55q.81,1.21,1.55,2.49a1,1,0,1,0,1.77-.93l0-.07q-.77-1.33-1.62-2.6a1,1,0,0,0-1.66,1.12Zm-7.36-7.52a21.91,21.91,0,0,1,2.3,1.72,1,1,0,1,0,1.3-1.52A23.9,23.9,0,0,0,231.57,33a1,1,0,0,0-1.09,1.68Z"/><path class="cls-2" d="M319.8,46.49q.58-1.34,1.26-2.64a1,1,0,0,0-1.75-1l0,0q-.72,1.37-1.32,2.77a1,1,0,1,0,1.84.79ZM316.73,56.8q.27-1.45.62-2.88a1,1,0,1,0-1.94-.47q-.36,1.48-.64,3a1,1,0,1,0,2,.37Zm-1.25,10.79q.09-1.49.21-3a1,1,0,0,0-2-.17h0q-.13,1.51-.22,3a1,1,0,1,0,2,.12h0Zm-.35,11q0-1.5.06-3a1,1,0,1,0-2,0q0,1.5-.06,3a1,1,0,0,0,2,0Zm-.33,11q.08-1.5.13-3a1,1,0,1,0-2-.08h0q-.06,1.49-.13,3a1,1,0,1,0,2,.1Zm-.81,11q.15-1.5.27-3a1,1,0,0,0-2-.17h0q-.13,1.49-.27,3a1,1,0,1,0,2,.19Zm-1.32,11q.21-1.49.41-3a1,1,0,1,0-2-.26q-.19,1.48-.41,3a1,1,0,1,0,2,.28Zm-1.82,10.89q.28-1.48.55-3a1,1,0,1,0-2-.35q-.26,1.47-.54,2.94a1,1,0,1,0,2,.38Zm4.69,4.77q-1.45-.27-2.88-.62a1,1,0,0,0-.59,1.91l.12,0q1.48.36,3,.64a1,1,0,0,0,.37-2Zm10.76,1q-1.48,0-3-.09a1,1,0,1,0-.11,2h0q1.52.08,3,.09a1,1,0,0,0,0-2Zm10.77-.89q-1.45.25-2.92.43a1,1,0,0,0,.24,2q1.51-.19,3-.44a1,1,0,0,0-.34-2Zm10.42-2.81q-1.37.52-2.78,1a1,1,0,1,0,.6,1.91q1.46-.46,2.89-1a1,1,0,0,0-.7-1.87Zm9.61-4.83q-1.23.8-2.51,1.53a1,1,0,0,0,1,1.74q1.34-.76,2.62-1.59a1,1,0,1,0-1-1.75l-.13.08Zm8.16-6.94q-1,1.09-2,2.1a1,1,0,1,0,1.38,1.45q1.11-1.06,2.14-2.21a1,1,0,1,0-1.49-1.34Zm6.1-8.84q-.7,1.3-1.47,2.55a1,1,0,0,0,1.7,1q.8-1.3,1.53-2.65a1,1,0,1,0-1.76-1ZM375.59,94v.14q-.43,1.33-.93,2.64a1,1,0,0,0,1.87.7q.51-1.35,1-2.73V94.6a1,1,0,1,0-1.86-.74l0,.13Zm2.21-10.53q-.13,1.46-.36,2.91a1,1,0,0,0,2,.31q.24-1.52.38-3a1,1,0,0,0-2-.18Zm-.66-10.61a27.49,27.49,0,0,1,.53,2.85,1,1,0,0,0,2-.27q-.21-1.53-.56-3a1,1,0,1,0-2,.46Zm-4.34-9.63q.83,1.19,1.54,2.46a1,1,0,0,0,1.75-1q-.76-1.35-1.64-2.62a1,1,0,0,0-1.64,1.14Zm-7.36-7.73q1.15.92,2.23,1.9A1,1,0,0,0,369,55.94q-1.13-1-2.34-2a1,1,0,1,0-1.3,1.52l0,0Zm-9.11-5.76q1.32.67,2.6,1.39a1,1,0,0,0,1-1.74q-1.32-.75-2.69-1.44a1,1,0,0,0-.9,1.78Zm-10-4.12q1.4.46,2.8,1a1,1,0,1,0,.7-1.88h0q-1.43-.53-2.87-1a1,1,0,1,0-.69,1.88l.07,0ZM335.79,42.8q1.45.31,2.9.66a1,1,0,0,0,.47-1.94q-1.47-.36-3-.67a1,1,0,1,0-.42,2ZM325,41.13q1.48.14,3,.33a1,1,0,0,0,.26-2q-1.5-.19-3-.34a1,1,0,0,0-.19,2Z"/><path class="cls-2" d="M76.94,236q.08-.92.08-1.84v-1.31a1,1,0,1,0-2,.13v1.18q0,.83-.07,1.67a1,1,0,1,0,2,.17Zm-3.66,10.76A26.34,26.34,0,0,0,74.76,244,1,1,0,1,0,73,243l-.06.12a24.34,24.34,0,0,1-1.37,2.54,1,1,0,0,0,1.7,1.05Zm-7.87,8.17A25.71,25.71,0,0,0,67.9,253a1,1,0,1,0-1.3-1.52h0a23.74,23.74,0,0,1-2.29,1.74,1,1,0,0,0,1.11,1.67ZM54.9,259.12q1.52-.3,3-.74a1,1,0,0,0-.57-1.92,27.17,27.17,0,0,1-2.82.69,1,1,0,1,0,.38,2Zm-11.26.33q1.53.19,3.07.26a1,1,0,0,0,.09-2q-1.46-.06-2.91-.24a1,1,0,0,0-.25,2Zm-10.86-2.92.9.37q1,.39,2,.72a1,1,0,0,0,.64-1.89q-1-.32-1.87-.69l-.86-.35a1,1,0,0,0-.85,1.81l.07,0Zm-9.68-5.69q1.21.94,2.49,1.8A1,1,0,0,0,26.71,251q-1.22-.82-2.38-1.72a1,1,0,0,0-1.22,1.58Zm-8-7.89q1,1.2,2,2.34a1,1,0,0,0,1.48-1.34q-1-1.09-1.9-2.24A1,1,0,1,0,15.14,243Zm-5.89-9.54q.65,1.39,1.38,2.74a1,1,0,1,0,1.76-1h0q-.7-1.29-1.32-2.62a1,1,0,1,0-1.87.72l.06.12Zm-3.4-10.67q.28,1.51.67,3a1,1,0,0,0,1.94-.51q-.37-1.42-.64-2.86a1,1,0,1,0-2,.37Zm-.62-11.21q-.11,1.51-.11,3.06a1,1,0,0,0,2,0q0-1.48.11-2.93a1,1,0,1,0-2-.14Zm2.25-11q-.51,1.44-.91,2.94a1,1,0,1,0,1.91.59l0-.07q.38-1.42.86-2.79a1,1,0,1,0-1.89-.66Zm5.15-10q-.88,1.25-1.68,2.57a1,1,0,1,0,1.72,1q.75-1.26,1.59-2.45a1,1,0,1,0-1.55-1.27l-.08.12Zm7.64-8.23q-1.18,1-2.29,2a1,1,0,0,0,1.38,1.45h0q1.06-1,2.19-1.95a1,1,0,1,0-1.28-1.54Zm9.44-6.05q-1.38.67-2.71,1.42a1,1,0,1,0,1,1.74q1.27-.72,2.6-1.36a1,1,0,0,0-.87-1.8Zm10.55-3.74q-1.5.35-3,.79a1,1,0,0,0,.57,1.92q1.4-.42,2.84-.76a1,1,0,1,0-.46-1.95Zm11.11-1.42c-1,0-2.06.06-3.08.14a1,1,0,1,0,.17,2c1-.08,2-.13,2.92-.14a1,1,0,0,0,0-2Zm11.09,2.46a23.82,23.82,0,0,0-2.89-1.2,1,1,0,0,0-.64,1.89,21.82,21.82,0,0,1,2.65,1.1,1,1,0,0,0,.89-1.79Zm8.71,7.32a22.94,22.94,0,0,0-2-2.41,1,1,0,1,0-1.45,1.38,20.93,20.93,0,0,1,1.83,2.2,1,1,0,0,0,1.62-1.17Z"/><path class="cls-2" d="M101.07,232.69l.15,3a1,1,0,1,0,2-.1l-.15-3a1,1,0,0,0-2,.1Zm-.57-11,.16,3a1,1,0,0,0,2-.11h0l-.16-3a1,1,0,0,0-2,.11Zm-.6-11,.17,3a1,1,0,0,0,2-.11h0l-.17-3a1,1,0,0,0-2,.11Zm-.64-11,.18,3a1,1,0,1,0,2-.12l-.18-3a1,1,0,0,0-2,.12Zm-.67-11,.19,3a1,1,0,1,0,2-.12l-.19-3a1,1,0,0,0-2,.12Zm-.7-11,.19,3a1,1,0,0,0,2-.13l-.19-3a1,1,0,1,0-2,.13Zm-.73-11,.2,3a1,1,0,1,0,2-.13l-.2-3a1,1,0,1,0-2,.14Zm-.77-11,.21,3a1,1,0,1,0,2-.14l-.21-3a1,1,0,1,0-2,.14Z"/><path class="cls-2" d="M150.8,235.24q.16,1.45.2,2.91a1,1,0,0,0,2-.06,22.55,22.55,0,0,0-.21-3.07,1,1,0,0,0-2,.22Zm-2.64-10.35q.55,1.35,1,2.75a1,1,0,1,0,1.92-.55l0-.07q-.47-1.46-1.06-2.89a1,1,0,1,0-1.85.76Zm-5.35-9.26q.9,1.15,1.71,2.37a1,1,0,1,0,1.67-1.11q-.85-1.28-1.8-2.5a1,1,0,1,0-1.58,1.23Zm-7.69-7.4q1.19.85,2.3,1.79a1,1,0,0,0,1.29-1.53q-1.18-1-2.43-1.89a1,1,0,1,0-1.16,1.63Zm2.76-8.71q-1.27.75-2.58,1.43a1,1,0,1,0,.89,1.79l0,0q1.35-.7,2.67-1.48a1,1,0,0,0-1-1.72Zm8.59-6.45q-1,1-2.18,2a1,1,0,0,0,1.28,1.54q1.18-1,2.29-2.05a1,1,0,0,0-1.39-1.44Zm6.36-8.49a28,28,0,0,1-1.43,2.52,1,1,0,1,0,1.69,1.07h0a30,30,0,0,0,1.53-2.7,1,1,0,0,0-1.79-.89Zm2.49-10.15a23.38,23.38,0,0,1-.21,2.87,1,1,0,0,0,2,.27,25.38,25.38,0,0,0,.23-3.11,1,1,0,0,0-2,0ZM153,164.3a18.81,18.81,0,0,1,1.14,2.61,1,1,0,1,0,1.89-.66,20.8,20.8,0,0,0-1.26-2.88,1,1,0,0,0-1.76.94Zm-7.35-7.06a17.76,17.76,0,0,1,2.45,1.44,1,1,0,0,0,1.15-1.64,19.76,19.76,0,0,0-2.72-1.6,1,1,0,0,0-.88,1.8Zm-10.28-2.74c1,.13,2,.29,2.92.47a1,1,0,0,0,.37-2c-1-.19-2-.34-3-.48a1,1,0,0,0-.27,2Zm-10.87-1.09,3,.23a1,1,0,1,0,.17-2l-3-.23a1,1,0,1,0-.14,2ZM113.55,153h3a1,1,0,1,0,0-2h-3a1,1,0,0,0,0,2Zm-10.93.32,3-.16a1,1,0,1,0-.09-2l-3,.16a1,1,0,1,0,.12,2Z"/><path class="cls-2" d="M220.75,248.72c-.06,1.07-.11,2.07-.16,3a1,1,0,1,0,2,.1c0-.92.1-1.92.16-3a1,1,0,0,0-2-.11Zm.58-11v.76q0,1.14-.11,2.23a1,1,0,0,0,2,.1q.06-1.1.11-2.24v-.76a1,1,0,1,0-2-.09Zm.37-11q0,1.51-.07,3a1,1,0,1,0,2,.06q0-1.49.07-3a1,1,0,0,0-2,0Zm-.19-11q0,1.5.08,3a1,1,0,0,0,2,0q0-1.49-.08-3a1,1,0,0,0-2,.07Zm-.65-10.93q.14,1.49.25,3a1,1,0,1,0,2-.15q-.11-1.5-.25-3a1,1,0,0,0-2,.18ZM219.38,194q.28,1.46.51,2.93a1,1,0,0,0,2-.31q-.24-1.5-.52-3a1,1,0,0,0-2,.37Zm-2.73-10.5q.48,1.39.89,2.81a1,1,0,0,0,1.92-.56q-.43-1.46-.92-2.9a1,1,0,1,0-1.91.58Zm-4.44-9.82q.74,1.26,1.41,2.58a1,1,0,1,0,1.81-.86l0-.05q-.69-1.36-1.47-2.68a1,1,0,0,0-1.72,1Zm-6.52-8.49q1,1,2,2.14a1,1,0,1,0,1.55-1.26l0,0q-1-1.16-2.09-2.25a1,1,0,0,0-1.52,1.3l.11.11ZM196.24,162h.16a15.09,15.09,0,0,1,2.64.24,1,1,0,1,0,.35-2,17.08,17.08,0,0,0-3-.27h-.18a1,1,0,1,0,0,2Zm-8.57,4.35q.77-1.06,1.62-2.07l-.76-.65.62.78.21-.17a1,1,0,0,0-1.14-1.64l-.07.05-.25.2-.14.13q-.9,1.07-1.71,2.19a1,1,0,0,0,1.57,1.24l0-.07Zm-5,9.45q.53-1.37,1.14-2.71a1,1,0,0,0-1.82-.83h0q-.64,1.39-1.19,2.82a1,1,0,1,0,1.87.72Zm-3,10.41q.31-1.46.67-2.89a1,1,0,0,0-1.92-.56l0,.08q-.37,1.47-.68,3a1,1,0,1,0,2,.42ZM177.82,197q.21-1.48.44-3a1,1,0,1,0-2-.3h0q-.23,1.49-.44,3a1,1,0,0,0,2,.28Zm-1.62,11q.24-1.48.45-3a1,1,0,0,0-2-.29q-.22,1.49-.45,3a1,1,0,1,0,2,.32Zm-1.6,10.84q.18-1.48.38-3a1,1,0,1,0-2-.26q-.2,1.49-.38,3a1,1,0,1,0,2,.24Zm-1.07,10.9q.11-1.49.25-3a1,1,0,1,0-2-.18q-.13,1.5-.25,3a1,1,0,0,0,2,.15Zm-.59,10.94q0-1.49.11-3a1,1,0,1,0-2-.09q-.07,1.5-.12,3a1,1,0,1,0,2,.06Zm.1,9.56-.34-.65v.73a.73.73,0,0,0,.34-.08l-.34-.65v-.12l-.46.72a.86.86,0,0,0,.46.13v-.85l-.46.72.43-.67-.75.28a.8.8,0,0,0,.33.39l.43-.67-.75.28.51-.19h-.55a.54.54,0,0,0,0,.19l.51-.19h-.21l-.29-.18a.3.3,0,0,0-.05.18h.34l-.29-.18.51.31-.33-.49a.6.6,0,0,0-.18.18l.51.31-.33-.49.4.6v-.72a.73.73,0,0,0-.4.12l.4.6h0l.18-.65h-.18v.67l.18-.65h0l-.09.33.25-.23-.16-.1-.09.33.25-.23-.13.12.15-.1h0l-.13.12.15-.1h0a1.44,1.44,0,0,1-.07-.52h0v-.1a1,1,0,0,0-2,0v.11h0A3.51,3.51,0,0,0,171,250a2,2,0,0,0,.39.67,1.65,1.65,0,0,0,.79.49h0a1.33,1.33,0,0,0,.35,0,1.28,1.28,0,0,0,.72-.22,1.45,1.45,0,0,0,.52-.65,1.7,1.7,0,0,0,.13-.65,1.38,1.38,0,0,0-.18-.7,1.17,1.17,0,0,0-.38-.4,1.15,1.15,0,0,0-.62-.18,1.26,1.26,0,0,0-.58.15,1,1,0,1,0,.92,1.78h0Z"/><path class="cls-2" d="M205.57,225.87l3-.09a1,1,0,0,0-.06-2l-3,.09a1,1,0,1,0,.07,2Zm-11,.53,3-.17a1,1,0,0,0-.11-2l-3,.18a1,1,0,0,0,.12,2Zm-10.94.82,3-.25a1,1,0,1,0-.16-2l-3,.26a1,1,0,0,0,.18,2Z"/><path class="cls-2" d="M292.19,157l1.24.33a1,1,0,1,0,.53-1.93h0l-1.28-.34a1,1,0,0,0-.49,1.94h0Zm-10.68-1.78q1.48.13,2.94.32a1,1,0,1,0,.26-2q-1.51-.19-3-.33a1,1,0,1,0-.18,2Zm-10.88-.35h3a1,1,0,0,0,0-2h-3a1,1,0,0,0,0,2Zm-10.92.57,3-.22a1,1,0,0,0-.13-2l-3,.22a1,1,0,1,0,.16,2Zm-11,.9c.93-.06,1.85-.09,2.65-.17h.38a1,1,0,1,0-.19-2h-.38c-.71.07-1.63.1-2.59.16a1,1,0,1,0,.13,2Zm-5.13,5.5q0-1.5,0-3a1,1,0,0,0-2,0q0,1.5,0,3a1,1,0,0,0,2,0Zm.11,11v-3a1,1,0,0,0-2,0v3a1,1,0,0,0,2,0Zm.23,11q0-1.5-.08-3a1,1,0,0,0-2,0q0,1.5.08,3a1,1,0,0,0,2-.05Zm.36,11q-.06-1.5-.11-3a1,1,0,0,0-2,.07q.05,1.5.11,3a1,1,0,1,0,2-.08Zm.49,11q-.08-1.5-.15-3a1,1,0,1,0-2,.09q.07,1.5.15,3a1,1,0,0,0,2-.1Zm.61,11-.18-3a1,1,0,0,0-2,.12l.18,3a1,1,0,0,0,2-.12Zm.74,11q-.11-1.49-.21-3a1,1,0,1,0-2,.14q.1,1.5.21,3a1,1,0,1,0,2-.15Zm.86,11q-.13-1.49-.25-3a1,1,0,0,0-2,.16q.12,1.5.25,3a1,1,0,1,0,2-.17Z"/><path class="cls-2" d="M272.85,194.57q1.38.51,2.72,1.1a1,1,0,1,0,.81-1.83q-1.4-.62-2.84-1.15a1,1,0,0,0-.69,1.88Zm-10.45-2.52q1.46.18,2.9.45a1,1,0,1,0,.37-2h0q-1.51-.28-3-.47a1,1,0,0,0-.24,2ZM251.66,192q1.46-.16,2.93-.23a1,1,0,1,0-.09-2q-1.53.07-3.05.24a1,1,0,0,0,.22,2Z"/><path class="cls-2" d="M358.9,163.55l.23,3a1,1,0,1,0,2-.15l-.23-3a1,1,0,1,0-2,.15Zm-7.7-2.25h3a1,1,0,0,0,0-2h-3a1,1,0,0,0,0,2Zm-11-.17h3a1,1,0,0,0,0-2h-3a1,1,0,0,0,0,2Zm-11-.17h3a1,1,0,0,0,0-2h-3a1,1,0,0,0,0,2Zm-11-.16h3a1,1,0,0,0,0-2h-3a1,1,0,0,0,0,2Zm-8.07,3.66a3.7,3.7,0,0,1,1.2-2A1,1,0,0,0,310,161a5.69,5.69,0,0,0-1.81,3.08,1,1,0,1,0,2,.39Z"/><path class="cls-2" d="M323.6,246.61a8.33,8.33,0,0,0,3.25,1,1,1,0,0,0,.22-2,6.37,6.37,0,0,1-2.47-.71,1,1,0,0,0-1,1.74Zm-3.28-11q.08,1.5.18,3a1,1,0,1,0,2-.13q-.1-1.49-.18-3a1,1,0,0,0-2,.11Zm-.42-11q0,1.5.07,3a1,1,0,0,0,2-.06q0-1.49-.07-3a1,1,0,0,0-2,0Zm0-11v3a1,1,0,1,0,2,0v-3a1,1,0,0,0-2,0Zm.4-11q-.08,1.5-.15,3a1,1,0,0,0,2,.09q.07-1.49.15-3a1,1,0,0,0-2-.11Zm.8-11q-.14,1.5-.26,3a1,1,0,1,0,2,.16q.12-1.49.26-3a1,1,0,1,0-2-.18Zm1.21-11q-.19,1.49-.37,3a1,1,0,1,0,2,.24q.18-1.48.37-3a1,1,0,1,0-2-.26Z"/><path class="cls-2" d="M415.17,188.06q.56,1.35,1,2.74a1,1,0,0,0,1.92-.55l0-.07q-.48-1.47-1.07-2.89a1,1,0,0,0-1.85.77Zm-5.6-9a28.36,28.36,0,0,1,1.82,2.25,1,1,0,0,0,1.61-1.18,30.34,30.34,0,0,0-2-2.41,1,1,0,1,0-1.49,1.34h.06Zm-8.5-6.07a21,21,0,0,1,2.58,1.24,1,1,0,0,0,1-1.74,23,23,0,0,0-2.82-1.36,1,1,0,0,0-.74,1.86Zm-10.31-1.32a23.32,23.32,0,0,1,2.58-.14h.29a1,1,0,0,0,0-2h-.32a25.29,25.29,0,0,0-2.8.16,1,1,0,0,0,.22,2Zm-9.58,4a23.44,23.44,0,0,1,2.42-1.54,1,1,0,0,0-1-1.75A25.48,25.48,0,0,0,380,174a1,1,0,1,0,1.18,1.62Zm-7.06,7.8a27.4,27.4,0,0,1,1.61-2.4,1,1,0,1,0-1.6-1.2,29.41,29.41,0,0,0-1.73,2.58,1,1,0,1,0,1.72,1Zm-3.55,9.92a25.67,25.67,0,0,1,.57-2.83,1,1,0,0,0-1.94-.5,27.66,27.66,0,0,0-.61,3,1,1,0,1,0,2,.28Z"/><path class="cls-2" d="M361.81,242.27q0-.4,0-.79a12.58,12.58,0,0,1,.15-2,1,1,0,0,0-2-.31,14.58,14.58,0,0,0-.18,2.3v.91a1,1,0,1,0,2-.12Zm3.81,9.52a20.45,20.45,0,0,1-1.58-2.38,1,1,0,1,0-1.74,1A22.46,22.46,0,0,0,364,253a1,1,0,1,0,1.59-1.22h0Zm8.3,6.4a27.86,27.86,0,0,1-2.51-1.44,1,1,0,1,0-1.17,1.62l.09.06A29.87,29.87,0,0,0,373,260a1,1,0,1,0,.9-1.79h0ZM384.06,261a26.56,26.56,0,0,1-2.87-.37,1,1,0,0,0-.37,2,28.54,28.54,0,0,0,3.08.4,1,1,0,1,0,.15-2Zm10.42-1.37a24.75,24.75,0,0,1-2.77.81,1,1,0,1,0,.45,2,26.78,26.78,0,0,0,3-.87,1,1,0,1,0-.55-1.92l-.12,0Zm8.92-5.54a25.74,25.74,0,0,1-2.19,1.88,1,1,0,0,0,1.21,1.59,27.74,27.74,0,0,0,2.36-2,1,1,0,0,0-1.27-1.54l-.11.1Zm5.48-8.75a16.42,16.42,0,0,1-1,2.65,1,1,0,0,0,1.81.84,18.44,18.44,0,0,0,1.09-3,1,1,0,0,0-1.91-.59l0,.07ZM408.56,235a23.08,23.08,0,0,1,.64,2.8,1,1,0,0,0,2-.32,25.11,25.11,0,0,0-.7-3,1,1,0,0,0-1.92.56Zm-4.71-9.54q.83,1.21,1.58,2.47a1,1,0,0,0,1.72-1q-.78-1.32-1.65-2.59a1,1,0,0,0-1.66,1.11v0Zm-7-8.17c.7.66,1.4,1.36,2.08,2.09a1,1,0,1,0,1.55-1.27l-.1-.1q-1.06-1.12-2.16-2.16a1,1,0,1,0-1.38,1.45h0Z"/><path class="cls-2" d="M174.53,70.29q1.51-.06,3-.18a1,1,0,0,0-.15-2q-1.48.11-3,.17a1,1,0,0,0,.09,2Zm-11.11-.17q1.51.11,3,.17a1,1,0,1,0,.08-2q-1.48-.06-3-.17a1,1,0,0,0-.15,2Zm-11-1.46q1.49.29,3,.52a1,1,0,0,0,.31-2q-1.47-.23-2.92-.51a1,1,0,1,0-.38,2Z"/><path class="cls-2" d="M47.46,122.17l-.18-2a1,1,0,0,0-2,.18l.18,2a1,1,0,0,0,2-.18ZM45.16,113l.12,3a1,1,0,1,0,2-.08l-.12-3a1,1,0,1,0-2,.08Zm-.54-11,.16,3a1,1,0,1,0,2-.1h0l-.16-3a1,1,0,0,0-2,.11ZM44,91l.2,3a1,1,0,1,0,2-.13l-.2-3A1,1,0,1,0,44,91Zm-.82-11,.24,3a1,1,0,0,0,2-.15l-.24-3a1,1,0,0,0-2,.16Zm-1-10.95.28,3a1,1,0,0,0,2-.18l-.28-3a1,1,0,1,0-2,.19ZM41.08,58.2q.16,1.49.31,3a1,1,0,1,0,2-.21q-.15-1.49-.31-3a1,1,0,1,0-2,.21ZM39.84,47.28q.18,1.49.35,3a1,1,0,0,0,2-.23q-.17-1.49-.35-3a1,1,0,1,0-2,.24Zm-1.38-10.9q.2,1.49.39,3a1,1,0,1,0,2-.26q-.19-1.49-.39-3a1,1,0,1,0-2,.26Z"/><path class="cls-2" d="M110.29,121.72a5.17,5.17,0,0,1-1.84.35,4.57,4.57,0,0,1-.61,0,1,1,0,0,0-.27,2,6.56,6.56,0,0,0,.88.06,7.17,7.17,0,0,0,2.56-.48,1,1,0,0,0-.72-1.87Zm2.51-8.36.21,1.59c.06.46.12.91.16,1.35a1,1,0,0,0,2-.18,10.37,10.37,0,0,0-.17-1.43l-.21-1.59a1,1,0,1,0-2,.26Zm-1.43-10.91.39,3a1,1,0,1,0,2-.26l-.39-3a1,1,0,1,0-2,.26Zm-1.43-10.91.39,3a1,1,0,1,0,2-.26l-.39-3a1,1,0,1,0-2,.26Zm-1.44-10.9.39,3a1,1,0,1,0,2-.26l-.39-3a1,1,0,1,0-2,.26Zm-1.43-10.91.39,3a1,1,0,1,0,2-.26l-.39-3a1,1,0,1,0-2,.26Zm-1.43-10.91.39,3a1,1,0,1,0,2-.26l-.39-3a1,1,0,1,0-2,.26ZM104.2,47.93c.07.46.13.92.19,1.37l.21,1.59a1,1,0,1,0,2-.26L106.36,49c-.06-.46-.12-.93-.19-1.4a1,1,0,1,0-2,.28Zm-3.71-9.42a4.84,4.84,0,0,1,.37.37,9.68,9.68,0,0,1,1.25,1.75,1,1,0,0,0,1.74-1,11.68,11.68,0,0,0-1.51-2.11q-.24-.26-.5-.5a1,1,0,1,0-1.44,1.38l.09.09Zm-8.27-.1A3.68,3.68,0,0,1,94.05,37a1,1,0,0,0-.68-1.88,5.69,5.69,0,0,0-2.83,2.18,1,1,0,0,0,1.66,1.12Z"/><path class="cls-2" d="M129.79,452l-.26-1.43a.75.75,0,1,0-1.48.27h0l.26,1.43a.75.75,0,1,0,1.48-.27Zm-1.92-5.42.21,2a.75.75,0,0,0,1.49-.16l-.21-2a.75.75,0,0,0-1.5.09Zm-1.06-9.94.21,2a.75.75,0,0,0,1.49-.16l-.21-2a.75.75,0,0,0-1.49.16Zm-1.06-9.94.21,2a.75.75,0,0,0,1.5-.09v-.07l-.21-2a.75.75,0,0,0-1.5.09Zm-1.06-9.94.21,2a.75.75,0,0,0,1.49-.16l-.21-2a.75.75,0,0,0-1.5.09Z"/><path class="cls-2" d="M105.4,427.18q.5.51,1,1.1a.75.75,0,0,0,1.17-.94h0a15.89,15.89,0,0,0-1.07-1.21.75.75,0,1,0-1.07,1Zm-8.39-4a15.06,15.06,0,0,1,1.88.31.75.75,0,0,0,.34-1.46,16.57,16.57,0,0,0-2.06-.34A.76.76,0,0,0,97,423.2Zm-9.48,1.39q.92-.34,1.85-.6a.75.75,0,0,0-.32-1.46l-.09,0q-1,.28-2,.64a.75.75,0,0,0,.52,1.41Zm-7.83,5.24c.41-.51.83-1,1.27-1.48a.75.75,0,1,0-1-1.1l-.09.1c-.45.5-.9,1-1.33,1.56a.75.75,0,0,0,1.17.93ZM76,438.45a11.4,11.4,0,0,1,.25-1.86.75.75,0,1,0-1.47-.32h0a12.89,12.89,0,0,0-.28,2.1.75.75,0,1,0,1.5.08Z"/><path class="cls-2" d="M115.33,439.84a17.3,17.3,0,0,0-.54-1.7.75.75,0,1,0-1.43.44l0,.09a15.79,15.79,0,0,1,.5,1.55.75.75,0,0,0,1.45-.38Zm-.73,10.27a16.85,16.85,0,0,0,.68-2,.75.75,0,0,0-1.45-.4,15.36,15.36,0,0,1-.62,1.8.75.75,0,0,0,1.39.58h0Zm-6.31,8.1q.81-.64,1.56-1.35a.75.75,0,0,0-1-1.09q-.7.66-1.46,1.26a.75.75,0,0,0,.93,1.18Zm-9.21,4.48q1-.24,2-.57a.75.75,0,0,0-.43-1.44l-.05,0q-.92.31-1.86.54a.75.75,0,1,0,.35,1.46Zm-10.27-.11a18.25,18.25,0,0,0,2,.46.75.75,0,0,0,.25-1.48,16.8,16.8,0,0,1-1.87-.42.75.75,0,1,0-.5,1.42l.09,0Z"/><path class="cls-2" d="M150.69,449q.27.77.47,1.56v.13a.75.75,0,0,0,1.5,0,2.05,2.05,0,0,0-.07-.48q-.22-.85-.5-1.68a.75.75,0,0,0-1.42.49h0Zm-5.14-8q.69.67,1.32,1.41a.76.76,0,1,0,1.14-1q-.67-.79-1.41-1.51a.75.75,0,0,0-1,1.08ZM138,434a3.17,3.17,0,0,0,.56,1.73,4.12,4.12,0,0,0,.47.56.75.75,0,1,0,1.06-1.07,2.61,2.61,0,0,1-.3-.36,1.68,1.68,0,0,1-.29-.9.75.75,0,0,0-1.5,0Zm7.33-7.18-.44.46q-.46.47-.94.92a.75.75,0,1,0,1,1.09q.5-.47,1-1l.46-.49a.75.75,0,1,0-1.1-1Zm2.89-8.38a7.91,7.91,0,0,1,.21,1.81h0a.75.75,0,0,0,1.5,0h0a9.4,9.4,0,0,0-.25-2.15.75.75,0,0,0-1.47.29Zm-6-6.46a9.23,9.23,0,0,1,1.69.73h0a.75.75,0,0,0,.76-1.29l0,0h0a10.74,10.74,0,0,0-2-.84.75.75,0,0,0-.45,1.43Zm-9,1.15a11.48,11.48,0,0,1,1.69-.82.75.75,0,0,0-.54-1.4h0a13,13,0,0,0-1.91.93.75.75,0,1,0,.68,1.34Z"/><path class="cls-2" d="M167.09,466v.06l.74-.09.7-.27a9.17,9.17,0,0,1-.48-1.72.75.75,0,0,0-1.48.26h0a10.65,10.65,0,0,0,.55,2,.75.75,0,0,0,1.44-.36v-.06a.75.75,0,0,0-1.49.19Zm-1.14-10q.1,1,.21,2a.75.75,0,0,0,1.49-.16q-.11-1-.21-2a.75.75,0,0,0-1.5.09ZM165,446q.08,1,.17,2a.75.75,0,1,0,1.49-.13q-.09-1-.17-2A.75.75,0,1,0,165,446Zm-.74-10q.06,1,.13,2a.75.75,0,0,0,1.5-.1q-.07-1-.13-2a.75.75,0,0,0-1.5.1Zm-.54-10q0,1,.09,2a.75.75,0,0,0,1.5-.07q0-1-.09-2a.75.75,0,1,0-1.5.07Z"/><path class="cls-2" d="M180.62,446.65a15.88,15.88,0,0,1-1.9.21.75.75,0,1,0,.08,1.5,17.38,17.38,0,0,0,2.08-.23.75.75,0,1,0-.26-1.48Zm8.09-4.49-.34.41a10.8,10.8,0,0,1-.94.94.75.75,0,1,0,1,1.12h0a12.33,12.33,0,0,0,1.07-1.07l.4-.48a.75.75,0,0,0-1.18-.93Zm1.69-8.76a9.07,9.07,0,0,1,.36,1.81.75.75,0,0,0,1.49-.14,10.57,10.57,0,0,0-.42-2.11.75.75,0,0,0-1.43.44Zm-6.45-6.32a15.91,15.91,0,0,1,1.72.83.75.75,0,0,0,.76-1.29l0,0a17.4,17.4,0,0,0-1.88-.91.75.75,0,0,0-.57,1.39ZM174.41,425l2,.25a.75.75,0,0,0,.21-1.49l-2-.26a.75.75,0,1,0-.18,1.49Z"/><path class="cls-2" d="M201.93,451.75l.14.83a.75.75,0,0,0,1.48,0l.17-1.15a.75.75,0,1,0-1.48-.22l-.17,1.15.74.11.74-.13-.14-.82a.75.75,0,0,0-1.49.2v0Zm-1.29-10q.1,1,.21,2a.75.75,0,0,0,1.5-.09v-.07q-.11-1-.2-2a.75.75,0,1,0-1.49.14Zm-.63-10q0,1,.07,2a.75.75,0,0,0,1.5-.06q0-1-.07-2a.75.75,0,0,0-1.5,0Zm0-10q0,1-.06,2a.75.75,0,0,0,1.5,0q0-1,.06-2a.75.75,0,0,0-1.5,0Zm.69-10q-.1,1-.19,2a.75.75,0,1,0,1.49.13q.09-1,.19-2a.75.75,0,0,0-1.49-.15Z"/><path class="cls-2" d="M216.78,431.07h2a.75.75,0,0,0,0-1.5h-2a.75.75,0,0,0-.06,1.5Zm-10-.83,2,.18a.75.75,0,1,0,.24-1.48h-.1l-2-.18a.75.75,0,0,0-.13,1.49Z"/><path class="cls-2" d="M227.22,447.37q.13,1,.28,2a.75.75,0,0,0,1.48-.22q-.15-1-.27-2a.75.75,0,0,0-1.49.19Zm-.83-10q0,1,.09,2a.75.75,0,1,0,1.5-.08h0q-.05-1-.09-2a.75.75,0,0,0-1.5,0Zm.1-10.07q-.06,1-.1,2a.75.75,0,1,0,1.5.06q0-1,.09-2a.75.75,0,0,0-1.5-.09Zm1-10q-.15,1-.28,2a.75.75,0,0,0,1.49.2q.13-1,.28-2a.75.75,0,0,0-1.48-.22Z"/><path class="cls-2" d="M262.26,455.42q0,1,.06,2a.75.75,0,0,0,1.5,0q0-1-.06-2a.75.75,0,1,0-1.5.06Zm-.64-9.94q.09,1,.17,2a.75.75,0,0,0,1.5-.12q-.08-1-.17-2a.75.75,0,1,0-1.49.14Zm-1.16-9.89q.14,1,.27,2a.75.75,0,1,0,1.49-.2q-.13-1-.28-2a.75.75,0,1,0-1.48.21Zm-1.75-9.74c.17.62.32,1.25.44,1.89a.75.75,0,0,0,1.47-.29c-.13-.66-.28-1.34-.47-2a.75.75,0,1,0-1.46.32l0,.09Zm-6.25-5.13h.6a7.27,7.27,0,0,1,1.2.1.75.75,0,0,0,.25-1.48,8.76,8.76,0,0,0-1.45-.12h-.73a.75.75,0,0,0,.13,1.49Zm-6.14,6.48q.51-.84,1.05-1.67a.75.75,0,1,0-1.18-.92l-.07.1q-.56.85-1.08,1.71a.75.75,0,0,0,1.25.83l0,0Zm-4.38,8.8q.36-.92.76-1.82a.75.75,0,0,0-1.38-.6q-.4.93-.78,1.87a.75.75,0,1,0,1.34.67l0-.12Zm-2.86,9.44q.21-1,.44-1.92a.75.75,0,1,0-1.46-.36q-.24,1-.46,2a.75.75,0,0,0,1.47.31Zm-1.23,9.78a18.28,18.28,0,0,1,.11-2,.75.75,0,1,0-1.5-.11h0q-.07,1-.12,2a.75.75,0,0,0,1.5.06Zm-.43,3.81v2a.75.75,0,0,0,1.5,0v-2a.75.75,0,0,0-1.5,0Z"/><path class="cls-2" d="M275.73,447.13a13.46,13.46,0,0,1-.15,2,.75.75,0,1,0,1.49.15q.1-1,.15-2a.75.75,0,1,0-1.5-.08h0Zm-.39-9.87q.1,1,.18,2a.75.75,0,1,0,1.49-.12q-.08-1-.18-2a.75.75,0,0,0-1.49.15Zm-1-10q.08,1,.18,2a.75.75,0,0,0,1.49-.14q-.1-1-.18-2a.75.75,0,0,0-1.5.12Zm-.32-9.72a2.62,2.62,0,0,1,.17,1.06v.57a.75.75,0,0,0,1.5.07v-.65a4.07,4.07,0,0,0-.3-1.66.75.75,0,1,0-1.42.5l0,.1Z"/><path class="cls-2" d="M292.2,438q.33.83.64,1.67a.75.75,0,1,0,1.41-.52h0q-.32-.85-.65-1.69a.75.75,0,0,0-1.4.55h0Zm-4-9.11q.43.89.85,1.8a.75.75,0,0,0,1.36-.63q-.42-.91-.86-1.82a.75.75,0,1,0-1.38.59l0,.06Zm-4.69-8.76,1,1.72a.75.75,0,0,0,1.3-.74l-1-1.74a.75.75,0,0,0-1.29.76Z"/><path class="cls-2" d="M302.24,448.61q-.26.93-.6,1.84a.75.75,0,0,0,1.4.53q.36-1,.64-2a.75.75,0,1,0-1.42-.5l0,.09Zm1-9.68v2a.75.75,0,0,0,1.5,0v-2a.75.75,0,0,0-1.5,0Zm-1-9.85.26,1.79V431a.75.75,0,1,0,1.49-.21h0v-.18l-.26-1.8a.75.75,0,1,0-1.48.22Zm-1.34-10q.09,1,.21,2a.75.75,0,0,0,1.49-.14v0q-.12-1-.21-2a.75.75,0,1,0-1.49.14ZM301.1,409q-.15,1-.24,2a.75.75,0,0,0,1.49.13q.09-1,.23-1.94a.75.75,0,1,0-1.48-.22Z"/><path class="cls-2" d="M327.49,474.37a12.24,12.24,0,0,0,2.11-.29.75.75,0,0,0-.34-1.46,10.74,10.74,0,0,1-1.85.26.75.75,0,1,0,.08,1.5Zm-10.06-2.12a18.81,18.81,0,0,0,1.91.82.75.75,0,1,0,.52-1.41h0a17.37,17.37,0,0,1-1.76-.76.75.75,0,0,0-.67,1.34Zm-7-7.56a11.92,11.92,0,0,0,.86,2,.75.75,0,1,0,1.33-.7l0,0a10.42,10.42,0,0,1-.75-1.7.75.75,0,1,0-1.44.43l0,.05ZM312,454.51a8.65,8.65,0,0,0-1.22,1.81.75.75,0,1,0,1.34.68h0a7.15,7.15,0,0,1,1-1.5.75.75,0,0,0-1.13-1Z"/><path class="cls-2" d="M341.1,455.66a8.26,8.26,0,0,1,.37,1.78.75.75,0,1,0,1.49-.15,9.76,9.76,0,0,0-.44-2.1.75.75,0,0,0-1.46.36l0,.11Zm-6.46-6.57c.58.33,1.14.67,1.66,1a.75.75,0,1,0,.83-1.25h0c-.56-.37-1.15-.73-1.75-1.07a.75.75,0,0,0-.84,1.24l.1.06Zm-8.93-4.43,1.81.89a.75.75,0,0,0,.65-1.35l-1.78-.88a.75.75,0,1,0-.68,1.34Zm-8.37-5.85a18.39,18.39,0,0,0,1.49,1.45.75.75,0,0,0,1-1.13,16.86,16.86,0,0,1-1.37-1.33.75.75,0,0,0-1.11,1Zm-3.58-9.6v.2c0,.61,0,1.23.06,1.86a.75.75,0,1,0,1.5-.12c0-.57-.06-1.15-.06-1.74v-.2a.75.75,0,0,0-1.5,0Zm3.33-9.73a14,14,0,0,0-1.21,1.65v.06a.75.75,0,0,0,1.28.79h0v0a12.47,12.47,0,0,1,1.08-1.47.76.76,0,1,0-1.14-1h0Zm9-5a15.85,15.85,0,0,0-2,.49.75.75,0,0,0,.45,1.43,14.32,14.32,0,0,1,1.85-.45.75.75,0,1,0-.26-1.48h0Zm10.17,1.63a16.13,16.13,0,0,0-1.91-.86.75.75,0,0,0-.52,1.41h0a14.63,14.63,0,0,1,1.73.78.75.75,0,1,0,.7-1.33h0Z"/><path class="cls-2" d="M253.63,445.59l2,.2a.75.75,0,0,0,.15-1.49l-2-.2a.75.75,0,1,0-.24,1.48Zm-8.78-.5a11.65,11.65,0,0,1,1.69-.11h.19a.75.75,0,0,0,0-1.5h-.2a13.14,13.14,0,0,0-1.91.13.75.75,0,0,0,.22,1.48Z"/></svg>