<?xml version="1.0" encoding="utf-8"?>
<!-- Generator: Adobe Illustrator 21.1.0, SVG Export Plug-In . SVG Version: 6.00 Build 0)  -->
<svg version="1.1" id="Capa_1" xmlns="http://www.w3.org/2000/svg" xmlns:xlink="http://www.w3.org/1999/xlink" x="0px" y="0px"
	 viewBox="0 0 512 512" style="enable-background:new 0 0 512 512;" xml:space="preserve">
<g>
	<g>
		<path d="M479.5,512C477.3,390.6,377.9,292.6,256,292.6S34.7,390.6,32.5,512H0c1-66.9,27.6-129.6,74.9-177
			c27.8-27.8,60.5-48.3,97.3-61l7.6-2.6l-6.6-4.6c-39.8-27.4-63.5-72.5-63.5-120.6C109.7,65.6,175.3,0,256,0
			c80.7,0,146.3,65.6,146.3,146.3c0,48.1-23.7,93.2-63.5,120.6l-6.6,4.6l7.6,2.6c36.7,12.7,69.5,33.2,97.3,61
			c47.4,47.4,73.9,110.1,74.9,177H479.5z M256,32.5c-62.7,0-113.8,51-113.8,113.8s51,113.8,113.8,113.8s113.8-51,113.8-113.8
			S318.7,32.5,256,32.5z"/>
	</g>
</g>
</svg>
